<mxfile host="app.diagrams.net" modified="2023-06-20T13:43:38.546Z" agent="Mozilla/5.0 (X11; Ubuntu; Linux x86_64; rv:109.0) Gecko/20100101 Firefox/114.0" etag="za9acrNpnKz1xTNosIoK" version="21.3.8" type="device">
  <diagram name="Page-1" id="8sroY6gARFTNKzss5sy9">
    <mxGraphModel dx="2097" dy="1832" grid="1" gridSize="10" guides="1" tooltips="1" connect="1" arrows="1" fold="1" page="1" pageScale="1" pageWidth="850" pageHeight="1100" math="0" shadow="0">
      <root>
        <mxCell id="0" />
        <mxCell id="1" parent="0" />
        <mxCell id="4V3P5PVLt-RJeXPezik5-6" value="&lt;div&gt;One&lt;/div&gt;&lt;div&gt;&lt;br&gt;&lt;/div&gt;&lt;div&gt;&lt;br&gt;&lt;/div&gt;&lt;div&gt;&lt;br&gt;&lt;/div&gt;&lt;div&gt;&lt;br&gt;&lt;/div&gt;&lt;div&gt;&lt;br&gt;&lt;/div&gt;&lt;div&gt;&lt;br&gt;&lt;/div&gt;&lt;div&gt;&lt;br&gt;&lt;/div&gt;&lt;div&gt;&lt;br&gt;&lt;/div&gt;&lt;div&gt;&lt;br&gt;&lt;/div&gt;&lt;div&gt;&lt;br&gt;&lt;/div&gt;&lt;div&gt;&lt;br&gt;&lt;/div&gt;&lt;div&gt;&lt;br&gt;&lt;/div&gt;&lt;div&gt;&lt;br&gt;&lt;/div&gt;&lt;div&gt;&lt;br&gt;&lt;/div&gt;&lt;div&gt;&lt;br&gt;&lt;/div&gt;&lt;div&gt;&lt;br&gt;&lt;/div&gt;&lt;div&gt;&lt;br&gt;&lt;/div&gt;&lt;div&gt;&lt;br&gt;&lt;/div&gt;&lt;div&gt;&lt;br&gt;&lt;/div&gt;&lt;div&gt;&lt;br&gt;&lt;/div&gt;&lt;div&gt;&lt;br&gt;&lt;/div&gt;&lt;div&gt;&lt;br&gt;&lt;/div&gt;&lt;div&gt;&lt;br&gt;&lt;/div&gt;&lt;div&gt;&lt;br&gt;&lt;/div&gt;&lt;div&gt;&lt;br&gt;&lt;/div&gt;" style="rounded=0;whiteSpace=wrap;html=1;" vertex="1" parent="1">
          <mxGeometry x="280" y="40" width="560" height="400" as="geometry" />
        </mxCell>
        <mxCell id="4V3P5PVLt-RJeXPezik5-7" value="&lt;div&gt;Keyrock&lt;/div&gt;&lt;div&gt;&amp;lt;Policy Registry&amp;gt;&lt;br&gt;&lt;/div&gt;" style="rounded=1;whiteSpace=wrap;html=1;" vertex="1" parent="1">
          <mxGeometry x="660" y="70" width="130" height="60" as="geometry" />
        </mxCell>
        <mxCell id="4V3P5PVLt-RJeXPezik5-27" value="" style="edgeStyle=orthogonalEdgeStyle;rounded=0;orthogonalLoop=1;jettySize=auto;html=1;" edge="1" parent="1" source="4V3P5PVLt-RJeXPezik5-9" target="4V3P5PVLt-RJeXPezik5-10">
          <mxGeometry relative="1" as="geometry" />
        </mxCell>
        <mxCell id="4V3P5PVLt-RJeXPezik5-9" value="&lt;div&gt;Kong&lt;/div&gt;&lt;div&gt;&amp;lt;Policy Enforcement Point&amp;gt;&lt;br&gt;&lt;/div&gt;" style="rounded=1;whiteSpace=wrap;html=1;" vertex="1" parent="1">
          <mxGeometry x="425" y="210" width="130" height="60" as="geometry" />
        </mxCell>
        <mxCell id="4V3P5PVLt-RJeXPezik5-10" value="&lt;div&gt;DSBA-PDP&lt;/div&gt;&lt;div&gt;&amp;lt;Policy Decision Point&amp;gt;&lt;br&gt;&lt;/div&gt;" style="rounded=1;whiteSpace=wrap;html=1;" vertex="1" parent="1">
          <mxGeometry x="660" y="210" width="130" height="60" as="geometry" />
        </mxCell>
        <mxCell id="4V3P5PVLt-RJeXPezik5-11" value="&lt;div&gt;Portal&lt;br&gt;&lt;/div&gt;" style="rounded=1;whiteSpace=wrap;html=1;" vertex="1" parent="1">
          <mxGeometry x="200" y="210" width="130" height="60" as="geometry" />
        </mxCell>
        <mxCell id="4V3P5PVLt-RJeXPezik5-12" value="&lt;div&gt;Verifier&lt;/div&gt;&lt;div&gt;&amp;lt;Credentials Verifier&amp;gt;&lt;br&gt;&lt;/div&gt;" style="rounded=1;whiteSpace=wrap;html=1;" vertex="1" parent="1">
          <mxGeometry x="200" y="330" width="130" height="60" as="geometry" />
        </mxCell>
        <mxCell id="4V3P5PVLt-RJeXPezik5-13" value="Trusted Issuers List" style="rounded=1;whiteSpace=wrap;html=1;" vertex="1" parent="1">
          <mxGeometry x="425" y="330" width="130" height="60" as="geometry" />
        </mxCell>
        <mxCell id="4V3P5PVLt-RJeXPezik5-14" value="Context Broker" style="rounded=1;whiteSpace=wrap;html=1;" vertex="1" parent="1">
          <mxGeometry x="425" y="70" width="130" height="60" as="geometry" />
        </mxCell>
        <mxCell id="4V3P5PVLt-RJeXPezik5-15" value="" style="group" vertex="1" connectable="0" parent="1">
          <mxGeometry x="-200" y="260" width="200" height="270" as="geometry" />
        </mxCell>
        <mxCell id="4V3P5PVLt-RJeXPezik5-1" value="&lt;div&gt;TrustAnchor&lt;/div&gt;&lt;div&gt;&lt;br&gt;&lt;/div&gt;&lt;div&gt;&lt;br&gt;&lt;/div&gt;&lt;div&gt;&lt;br&gt;&lt;/div&gt;&lt;div&gt;&lt;br&gt;&lt;/div&gt;&lt;div&gt;&lt;br&gt;&lt;/div&gt;&lt;div&gt;&lt;br&gt;&lt;/div&gt;&lt;div&gt;&lt;br&gt;&lt;/div&gt;&lt;div&gt;&lt;br&gt;&lt;/div&gt;&lt;div&gt;&lt;br&gt;&lt;/div&gt;&lt;div&gt;&lt;br&gt;&lt;/div&gt;&lt;div&gt;&lt;br&gt;&lt;/div&gt;&lt;div&gt;&lt;br&gt;&lt;/div&gt;&lt;div&gt;&lt;br&gt;&lt;/div&gt;&lt;div&gt;&lt;br&gt;&lt;/div&gt;&lt;div&gt;&lt;br&gt;&lt;/div&gt;&lt;div&gt;&lt;br&gt;&lt;/div&gt;" style="rounded=1;whiteSpace=wrap;html=1;" vertex="1" parent="4V3P5PVLt-RJeXPezik5-15">
          <mxGeometry width="200" height="270" as="geometry" />
        </mxCell>
        <mxCell id="4V3P5PVLt-RJeXPezik5-3" value="Satellite" style="ellipse;whiteSpace=wrap;html=1;aspect=fixed;" vertex="1" parent="4V3P5PVLt-RJeXPezik5-15">
          <mxGeometry x="60" y="60" width="80" height="80" as="geometry" />
        </mxCell>
        <mxCell id="4V3P5PVLt-RJeXPezik5-4" value="&lt;div&gt;Trusted&lt;/div&gt;&lt;div&gt;Participants&lt;/div&gt;&lt;div&gt;List&lt;br&gt;&lt;/div&gt;" style="ellipse;whiteSpace=wrap;html=1;aspect=fixed;" vertex="1" parent="4V3P5PVLt-RJeXPezik5-15">
          <mxGeometry x="60" y="170" width="80" height="80" as="geometry" />
        </mxCell>
        <mxCell id="4V3P5PVLt-RJeXPezik5-17" value="" style="endArrow=classic;html=1;rounded=0;exitX=1;exitY=0.5;exitDx=0;exitDy=0;" edge="1" parent="1" source="4V3P5PVLt-RJeXPezik5-11" target="4V3P5PVLt-RJeXPezik5-9">
          <mxGeometry width="50" height="50" relative="1" as="geometry">
            <mxPoint x="360" y="190" as="sourcePoint" />
            <mxPoint x="410" y="140" as="targetPoint" />
          </mxGeometry>
        </mxCell>
        <mxCell id="4V3P5PVLt-RJeXPezik5-18" value="" style="endArrow=classic;html=1;rounded=0;exitX=1;exitY=0.5;exitDx=0;exitDy=0;entryX=0;entryY=0.5;entryDx=0;entryDy=0;" edge="1" parent="1" source="4V3P5PVLt-RJeXPezik5-9" target="4V3P5PVLt-RJeXPezik5-10">
          <mxGeometry width="50" height="50" relative="1" as="geometry">
            <mxPoint x="460" y="380" as="sourcePoint" />
            <mxPoint x="510" y="330" as="targetPoint" />
          </mxGeometry>
        </mxCell>
        <mxCell id="4V3P5PVLt-RJeXPezik5-19" value="" style="endArrow=classic;html=1;rounded=0;exitX=0.5;exitY=0;exitDx=0;exitDy=0;entryX=0.5;entryY=1;entryDx=0;entryDy=0;" edge="1" parent="1" source="4V3P5PVLt-RJeXPezik5-10" target="4V3P5PVLt-RJeXPezik5-7">
          <mxGeometry width="50" height="50" relative="1" as="geometry">
            <mxPoint x="750" y="200" as="sourcePoint" />
            <mxPoint x="800" y="150" as="targetPoint" />
          </mxGeometry>
        </mxCell>
        <mxCell id="4V3P5PVLt-RJeXPezik5-20" value="&amp;lt;forward request&amp;gt;" style="endArrow=classic;html=1;rounded=0;exitX=0.5;exitY=0;exitDx=0;exitDy=0;" edge="1" parent="1" source="4V3P5PVLt-RJeXPezik5-9" target="4V3P5PVLt-RJeXPezik5-14">
          <mxGeometry y="-50" width="50" height="50" relative="1" as="geometry">
            <mxPoint x="350" y="150" as="sourcePoint" />
            <mxPoint x="400" y="100" as="targetPoint" />
            <mxPoint as="offset" />
          </mxGeometry>
        </mxCell>
        <mxCell id="4V3P5PVLt-RJeXPezik5-21" value="&amp;lt;redirect for login&amp;gt;" style="endArrow=classic;html=1;rounded=0;exitX=0.25;exitY=1;exitDx=0;exitDy=0;entryX=0.25;entryY=0;entryDx=0;entryDy=0;startArrow=classic;startFill=1;" edge="1" parent="1" source="4V3P5PVLt-RJeXPezik5-11" target="4V3P5PVLt-RJeXPezik5-12">
          <mxGeometry width="50" height="50" relative="1" as="geometry">
            <mxPoint x="320" y="450" as="sourcePoint" />
            <mxPoint x="370" y="400" as="targetPoint" />
          </mxGeometry>
        </mxCell>
        <mxCell id="4V3P5PVLt-RJeXPezik5-22" value="&amp;lt;check issuer&amp;gt;" style="endArrow=classic;html=1;rounded=0;exitX=1;exitY=0.5;exitDx=0;exitDy=0;entryX=0;entryY=0.5;entryDx=0;entryDy=0;" edge="1" parent="1" source="4V3P5PVLt-RJeXPezik5-12" target="4V3P5PVLt-RJeXPezik5-13">
          <mxGeometry x="-0.1579" y="-10" width="50" height="50" relative="1" as="geometry">
            <mxPoint x="360" y="450" as="sourcePoint" />
            <mxPoint x="410" y="400" as="targetPoint" />
            <mxPoint as="offset" />
          </mxGeometry>
        </mxCell>
        <mxCell id="4V3P5PVLt-RJeXPezik5-26" value="&amp;lt;resolve role&amp;gt;" style="text;html=1;strokeColor=none;fillColor=none;align=center;verticalAlign=middle;whiteSpace=wrap;rounded=0;" vertex="1" parent="1">
          <mxGeometry x="720" y="160" width="60" height="30" as="geometry" />
        </mxCell>
        <mxCell id="4V3P5PVLt-RJeXPezik5-28" value="&amp;lt;get decision&amp;gt;" style="text;html=1;strokeColor=none;fillColor=none;align=center;verticalAlign=middle;whiteSpace=wrap;rounded=0;" vertex="1" parent="1">
          <mxGeometry x="570" y="210" width="60" height="30" as="geometry" />
        </mxCell>
        <mxCell id="4V3P5PVLt-RJeXPezik5-33" value="" style="group" vertex="1" connectable="0" parent="1">
          <mxGeometry x="-190" y="30" width="180" height="140" as="geometry" />
        </mxCell>
        <mxCell id="4V3P5PVLt-RJeXPezik5-31" value="&lt;div&gt;&lt;br&gt;&lt;/div&gt;&lt;div&gt;&lt;br&gt;&lt;/div&gt;&lt;div&gt;&lt;br&gt;&lt;/div&gt;&lt;div&gt;&lt;br&gt;&lt;/div&gt;&lt;div&gt;Other Participant&lt;/div&gt;&lt;div&gt;&lt;br&gt;&lt;/div&gt;&lt;div&gt;&lt;br&gt;&lt;/div&gt;&lt;div&gt;&lt;br&gt;&lt;/div&gt;&lt;div&gt;&lt;br&gt;&lt;/div&gt;&lt;div&gt;&lt;br&gt;&lt;/div&gt;&lt;div&gt;&lt;br&gt;&lt;/div&gt;&lt;div&gt;&lt;br&gt;&lt;/div&gt;&lt;div&gt;&lt;br&gt;&lt;/div&gt;&lt;div&gt;&lt;br&gt;&lt;/div&gt;&lt;div&gt;&lt;br&gt;&lt;/div&gt;&lt;div&gt;&lt;br&gt;&lt;/div&gt;" style="rounded=0;whiteSpace=wrap;html=1;" vertex="1" parent="4V3P5PVLt-RJeXPezik5-33">
          <mxGeometry width="130" height="140" as="geometry" />
        </mxCell>
        <mxCell id="4V3P5PVLt-RJeXPezik5-8" value="&lt;div&gt;Keycloak&lt;/div&gt;&lt;div&gt;&amp;lt;Credentials Issuer&amp;gt;&lt;br&gt;&lt;/div&gt;" style="rounded=1;whiteSpace=wrap;html=1;" vertex="1" parent="4V3P5PVLt-RJeXPezik5-33">
          <mxGeometry x="50" y="40" width="130" height="60" as="geometry" />
        </mxCell>
        <mxCell id="4V3P5PVLt-RJeXPezik5-35" value="" style="endArrow=classic;html=1;rounded=0;exitX=0.5;exitY=1;exitDx=0;exitDy=0;entryX=1;entryY=0.75;entryDx=0;entryDy=0;" edge="1" parent="1" source="4V3P5PVLt-RJeXPezik5-12" target="4V3P5PVLt-RJeXPezik5-1">
          <mxGeometry width="50" height="50" relative="1" as="geometry">
            <mxPoint x="90" y="460" as="sourcePoint" />
            <mxPoint x="140" y="410" as="targetPoint" />
            <Array as="points">
              <mxPoint x="265" y="463" />
            </Array>
          </mxGeometry>
        </mxCell>
        <mxCell id="4V3P5PVLt-RJeXPezik5-36" value="&amp;lt;checks participant&amp;gt;" style="edgeLabel;html=1;align=center;verticalAlign=middle;resizable=0;points=[];" vertex="1" connectable="0" parent="4V3P5PVLt-RJeXPezik5-35">
          <mxGeometry x="-0.192" y="-2" relative="1" as="geometry">
            <mxPoint as="offset" />
          </mxGeometry>
        </mxCell>
        <mxCell id="4V3P5PVLt-RJeXPezik5-37" value="" style="endArrow=none;dashed=1;html=1;dashPattern=1 3;strokeWidth=2;rounded=0;entryX=0.75;entryY=1;entryDx=0;entryDy=0;exitX=0.5;exitY=0;exitDx=0;exitDy=0;" edge="1" parent="1" source="4V3P5PVLt-RJeXPezik5-1" target="4V3P5PVLt-RJeXPezik5-8">
          <mxGeometry width="50" height="50" relative="1" as="geometry">
            <mxPoint x="-270" y="330" as="sourcePoint" />
            <mxPoint x="-220" y="280" as="targetPoint" />
            <Array as="points">
              <mxPoint x="-100" y="210" />
              <mxPoint x="-42" y="210" />
            </Array>
          </mxGeometry>
        </mxCell>
        <mxCell id="4V3P5PVLt-RJeXPezik5-38" value="&amp;lt;registered as participant&amp;gt;" style="edgeLabel;html=1;align=center;verticalAlign=middle;resizable=0;points=[];" vertex="1" connectable="0" parent="4V3P5PVLt-RJeXPezik5-37">
          <mxGeometry x="-0.2872" y="-1" relative="1" as="geometry">
            <mxPoint as="offset" />
          </mxGeometry>
        </mxCell>
        <mxCell id="4V3P5PVLt-RJeXPezik5-39" value="Actor" style="shape=umlActor;verticalLabelPosition=bottom;verticalAlign=top;html=1;outlineConnect=0;" vertex="1" parent="1">
          <mxGeometry x="110" y="-20" width="30" height="60" as="geometry" />
        </mxCell>
        <mxCell id="4V3P5PVLt-RJeXPezik5-41" value="" style="verticalLabelPosition=bottom;verticalAlign=top;html=1;shadow=0;dashed=0;strokeWidth=1;shape=mxgraph.android.phone2;strokeColor=#c0c0c0;" vertex="1" parent="1">
          <mxGeometry x="90" y="80" width="70" height="100" as="geometry" />
        </mxCell>
        <mxCell id="4V3P5PVLt-RJeXPezik5-42" value="" style="endArrow=none;dashed=1;html=1;dashPattern=1 3;strokeWidth=2;rounded=0;entryX=0.527;entryY=-0.034;entryDx=0;entryDy=0;entryPerimeter=0;" edge="1" parent="1" source="4V3P5PVLt-RJeXPezik5-39" target="4V3P5PVLt-RJeXPezik5-41">
          <mxGeometry width="50" height="50" relative="1" as="geometry">
            <mxPoint x="40" y="120" as="sourcePoint" />
            <mxPoint x="90" y="70" as="targetPoint" />
          </mxGeometry>
        </mxCell>
        <mxCell id="4V3P5PVLt-RJeXPezik5-43" value="&amp;lt;get credential&amp;gt;" style="endArrow=classic;html=1;rounded=0;exitX=-0.018;exitY=0.496;exitDx=0;exitDy=0;exitPerimeter=0;entryX=1;entryY=0.5;entryDx=0;entryDy=0;" edge="1" parent="1" source="4V3P5PVLt-RJeXPezik5-41" target="4V3P5PVLt-RJeXPezik5-8">
          <mxGeometry x="-0.2439" y="-10" width="50" height="50" relative="1" as="geometry">
            <mxPoint x="-30" y="30" as="sourcePoint" />
            <mxPoint x="20" y="-20" as="targetPoint" />
            <Array as="points">
              <mxPoint x="30" y="130" />
              <mxPoint x="30" y="100" />
            </Array>
            <mxPoint as="offset" />
          </mxGeometry>
        </mxCell>
        <mxCell id="4V3P5PVLt-RJeXPezik5-44" value="" style="endArrow=classic;html=1;rounded=0;entryX=0.25;entryY=0;entryDx=0;entryDy=0;" edge="1" parent="1" source="4V3P5PVLt-RJeXPezik5-39" target="4V3P5PVLt-RJeXPezik5-11">
          <mxGeometry width="50" height="50" relative="1" as="geometry">
            <mxPoint x="200" y="60" as="sourcePoint" />
            <mxPoint x="250" y="10" as="targetPoint" />
            <Array as="points">
              <mxPoint x="233" y="10" />
            </Array>
          </mxGeometry>
        </mxCell>
        <mxCell id="4V3P5PVLt-RJeXPezik5-45" value="&amp;lt;access portal&amp;gt;" style="edgeLabel;html=1;align=center;verticalAlign=middle;resizable=0;points=[];" vertex="1" connectable="0" parent="4V3P5PVLt-RJeXPezik5-44">
          <mxGeometry x="-0.1048" relative="1" as="geometry">
            <mxPoint x="-3" as="offset" />
          </mxGeometry>
        </mxCell>
        <mxCell id="4V3P5PVLt-RJeXPezik5-46" value="" style="endArrow=classic;startArrow=classic;html=1;rounded=0;entryX=0.511;entryY=1.037;entryDx=0;entryDy=0;entryPerimeter=0;exitX=0;exitY=0.5;exitDx=0;exitDy=0;" edge="1" parent="1" source="4V3P5PVLt-RJeXPezik5-12" target="4V3P5PVLt-RJeXPezik5-41">
          <mxGeometry width="50" height="50" relative="1" as="geometry">
            <mxPoint x="60" y="340" as="sourcePoint" />
            <mxPoint x="110" y="290" as="targetPoint" />
            <Array as="points">
              <mxPoint x="126" y="360" />
            </Array>
          </mxGeometry>
        </mxCell>
        <mxCell id="4V3P5PVLt-RJeXPezik5-47" value="&amp;lt;authenticate via OIDC4VP&amp;gt;" style="edgeLabel;html=1;align=center;verticalAlign=middle;resizable=0;points=[];" vertex="1" connectable="0" parent="4V3P5PVLt-RJeXPezik5-46">
          <mxGeometry x="-0.0299" y="-1" relative="1" as="geometry">
            <mxPoint x="-7" y="17" as="offset" />
          </mxGeometry>
        </mxCell>
      </root>
    </mxGraphModel>
  </diagram>
</mxfile>
